# xmcd
#
# Track frame offsets: 
#        150
#        16641
#        34219
#        51710
#        77678
#        102117
#        116010
#        128482
#        144343
#        162154
#        186242
#
# Disc length: 2765 seconds
#
# Revision: 0
# Processed by: cddbd v1.5.2PL0 Copyright (c) Steve Scherf et al.
# Submitted via: ExactAudioCopy v0.99pb5
#
DISCID=890acb0b
DTITLE=Cyndi Lauper - Memphis Blues
DYEAR=2010
DGENRE=Blues
TTITLE0=Just Your Fool
TTITLE1=Shattered Dreams
TTITLE2=Early in the Mornin'
TTITLE3=Romance in the Dark
TTITLE4=How Blue Can You Get?
TTITLE5=Down Don't Bother Me
TTITLE6=Don't Cry No More
TTITLE7=Rollin' and Tumblin'
TTITLE8=Down so Low
TTITLE9=Mother Earth
TTITLE10=Crossroads
EXTD=
EXTT0=
EXTT1=
EXTT2=
EXTT3=
EXTT4=
EXTT5=
EXTT6=
EXTT7=
EXTT8=
EXTT9=
EXTT10=
PLAYORDER=
